<svg width="2907" height="1566" viewBox="0 0 2907 1566" fill="none" xmlns="http://www.w3.org/2000/svg">
<path d="M232.5 41.2765C105 35.471 0 0 0 0V1518.5C1124.32 1518.5 1782.18 1540 2906.5 1540V0C2906.5 0 2642.5 26.4403 2420.5 52.8874C2198.5 79.3345 1863.5 64.4983 1756 52.8874C1648.5 41.2764 1351 0 1051.5 0C752 0 360 47.0819 232.5 41.2765Z" fill="#EEEEEE"/>
<path d="M232.5 67.2765C105 61.471 0 26 0 26V1544.5C1124.32 1544.5 1782.18 1566 2906.5 1566V26C2906.5 26 2642.5 52.4403 2420.5 78.8874C2198.5 105.334 1863.5 90.4983 1756 78.8874C1648.5 67.2764 1351 26 1051.5 26C752 26 360 73.0819 232.5 67.2765Z" fill="white"/>
</svg>
