<svg width="2879" height="518" viewBox="0 0 2879 518" fill="none" xmlns="http://www.w3.org/2000/svg">
<path d="M205 81.2765C77.5 75.471 0 34.1877 0 34.1877V495.5H2879V0C2879 0 2545 66.4403 2323 92.8874C2101 119.334 1704.5 92.8874 1597 81.2765C1489.5 69.6655 1374 7.74061 1074.5 7.74061C775 7.74061 332.5 87.0819 205 81.2765Z" fill="#E8E8E8"/>
<path d="M205 103.276C77.5 97.471 0 56.1877 0 56.1877V517.5H2879V22C2879 22 2545 88.4403 2323 114.887C2101 141.334 1704.5 114.887 1597 103.276C1489.5 91.6655 1374 29.7406 1074.5 29.7406C775 29.7406 332.5 109.082 205 103.276Z" fill="white"/>
</svg>
